<?xml version="1.0" encoding="iso-8859-1"?>
<!-- Generator: Adobe Illustrator 24.3.0, SVG Export Plug-In . SVG Version: 6.00 Build 0)  -->
<svg version="1.1" id="Layer_1" xmlns="http://www.w3.org/2000/svg" xmlns:xlink="http://www.w3.org/1999/xlink" x="0px" y="0px"
	 viewBox="0 0 64 64" style="enable-background:new 0 0 64 64;" xml:space="preserve">
<g>
	<g>
		<path d="M58.372,30.348c0.036-0.023,3.07-1.764,3.03-1.783c-2.942-1.365-5.374-9.025-6.222-10.703
			C49.293,6.209,43.195,0.032,30.451,0.05C14.978,0.071,2.573,14.433,2.598,32.171c0.024,17.478,12.468,31.808,27.941,31.787
			c9.728-0.013,18.277-5.764,23.188-14.51c0.819-1.566,0.347-3.392-0.943-4.433c-1.173-0.78-2.789-0.435-3.749,1.048
			c-4.81,7.428-10.687,12.698-20.185,12.336c-5.92-0.226-23.015-6.074-20.629-29.11C33.648,49.642,54.929,32.503,58.372,30.348z
			 M50.131,24.57c0,0-25.941-12.731-39.16,0.053C10.971,24.623,22.837,4.005,50.131,24.57z"/>
	</g>
</g>
</svg>
